<svg width="450" height="124" viewBox="0 0 450 124" fill="none" xmlns="http://www.w3.org/2000/svg">
<path d="M116.117 83.5603V10.9899C115.994 4.9117 111.212 0 105.143 0H29.4891C13.1812 0.245585 0 13.63 0 30.0228C0 35.5484 1.47139 40.2759 3.73978 44.4509C5.64032 47.8891 8.6444 51.1431 11.6485 53.5989C12.4455 54.2743 12.0776 54.0287 14.6526 55.5636C18.2084 57.7125 22.2547 58.8176 22.2547 58.8176L22.1934 102.225C22.2547 104.251 22.5 106.277 22.9904 108.057C24.707 114.136 28.876 118.863 34.7002 121.135C37.0912 122.056 39.8501 122.731 42.7315 122.731L103.181 122.977C115.259 122.977 125.007 113.153 125.007 101.12C125.007 93.9362 121.512 87.551 116.117 83.5603Z" fill="#FFEEDA"/>
<path d="M171.111 34.0135C162.712 34.0135 156.274 38.8024 156.274 45.9244C156.274 52.8008 161.731 55.1952 168.536 56.4845L177.119 57.8966C188.461 59.7999 196.37 65.0186 196.37 77.482C196.37 90.498 185.702 98.0498 172.153 98.0498C159.891 98.0498 148.366 90.805 146.71 76.6839C146.588 75.5174 147.507 74.4736 148.672 74.4736H153.822C154.803 74.4736 155.661 75.2104 155.784 76.1927C157.01 86.2003 164.735 90.191 172.276 90.191C180.552 90.191 187.112 86.0775 187.112 77.789C187.112 70.4215 181.84 67.7814 174.85 66.4921L166.39 65.0186C154.496 62.9925 147.017 57.3441 147.017 46.4155C147.017 33.8293 157.991 26.1548 171.172 26.1548C181.717 26.1548 193.304 32.1102 195.511 46.1086C195.695 47.3365 194.776 48.3802 193.549 48.3802H188.216C187.235 48.3802 186.438 47.7049 186.254 46.7225C184.721 37.3903 177.916 34.0135 171.111 34.0135Z" fill="#190602"/>
<path d="M230.456 41.7495C243.146 41.7495 252.159 48.5644 255.347 59.6158C255.714 60.8437 254.733 62.133 253.446 62.133H247.438C246.58 62.133 245.844 61.5804 245.599 60.7823C243.392 54.4585 238.242 50.8975 230.456 50.8975C219.849 50.8975 213.902 59.5544 213.902 69.9303C213.902 80.3063 219.849 88.9631 230.456 88.9631C238.242 88.9631 243.392 85.3408 245.599 79.0784C245.905 78.2802 246.641 77.7276 247.438 77.7276H253.385C254.672 77.7276 255.653 79.017 255.285 80.2449C251.852 91.7874 243.146 98.0498 230.394 98.0498C214.086 98.0498 203.664 85.4022 203.664 69.9303C203.787 54.3971 214.148 41.7495 230.456 41.7495Z" fill="#190602"/>
<path d="M264.974 89.0245H277.787V53.4761H266.384C265.28 53.4761 264.422 52.6166 264.422 51.5114V46.4769C264.422 45.3718 265.28 44.5123 266.384 44.5123H281.895C285.144 44.5123 287.841 47.1523 287.841 50.4677V51.8798C290.662 45.0648 296.731 43.4071 306.172 43.4071C309.79 43.4071 312.181 44.0211 313.529 44.5123C314.326 44.8193 314.817 45.556 314.817 46.3542V51.5728C314.817 52.9236 313.529 53.8445 312.242 53.4761C310.525 52.9236 308.196 52.4324 305.069 52.4324C295.014 52.4324 287.841 59.3088 287.841 71.1582V89.0245H304.272C305.375 89.0245 306.234 89.8841 306.234 90.9892V96.0237C306.234 97.1288 305.375 97.9884 304.272 97.9884H264.974C263.87 97.9884 263.012 97.1288 263.012 96.0237V90.9892C263.012 89.8841 263.87 89.0245 264.974 89.0245Z" fill="#190602"/>
<path d="M322.295 69.8689C322.295 54.3971 332.595 41.7495 349.209 41.7495C365.823 41.7495 376.123 54.3971 376.123 69.8689C376.123 85.3408 365.823 97.9884 349.209 97.9884C332.595 97.9884 322.295 85.3408 322.295 69.8689ZM349.209 88.9018C359.938 88.9018 366.069 80.2449 366.069 69.8689C366.069 59.493 359.877 50.8361 349.209 50.8361C338.48 50.8361 332.349 59.493 332.349 69.8689C332.349 80.2449 338.48 88.9018 349.209 88.9018Z" fill="#190602"/>
<path d="M398.44 89.4543H413.89C414.993 89.4543 415.852 90.3139 415.852 91.419V96.0237C415.852 97.1289 414.993 97.9884 413.89 97.9884H390.777C389.673 97.9884 388.815 97.1289 388.815 96.0237V35.1187H381.151C380.048 35.1187 379.189 34.2591 379.189 33.154V28.5493C379.189 27.4441 380.048 26.5846 381.151 26.5846H392.555C395.804 26.5846 398.501 29.2246 398.501 32.54V89.4543H398.44Z" fill="#190602"/>
<path d="M432.589 89.4543H448.038C449.142 89.4543 450 90.3139 450 91.419V96.0237C450 97.1289 449.142 97.9884 448.038 97.9884H424.925C423.822 97.9884 422.963 97.1289 422.963 96.0237V35.1187H415.3C414.196 35.1187 413.338 34.2591 413.338 33.154V28.5493C413.338 27.4441 414.196 26.5846 415.3 26.5846H426.703C429.952 26.5846 432.65 29.2246 432.65 32.54V89.4543H432.589Z" fill="#190602"/>
<path d="M117.587 101.672C117.342 109.408 110.966 115.609 103.18 115.609L61.6133 115.425C64.9239 111.557 66.9471 106.584 66.9471 101.181C66.9471 92.6469 61.8585 86.7529 61.8585 86.7529H103.241C111.211 86.7529 117.649 93.1995 117.649 101.181L117.587 101.672Z" fill="#EBC28E"/>
<path d="M15.6335 47.4593C10.8515 42.916 7.47955 37.0833 7.47955 30.0841V29.3474C7.8474 17.4365 17.6566 7.85872 29.4891 7.49034H105.143C107.105 7.55174 108.699 8.96385 108.699 10.9899V75.0876C110.477 75.3946 111.274 75.6401 112.929 76.2541C114.216 76.7453 116.117 77.789 116.117 77.789V10.9899C115.994 4.9117 111.212 0 105.143 0H29.4891C13.1812 0.245585 0 13.63 0 30.0228C0 39.5392 4.35285 47.7049 11.4646 53.4147C11.955 53.7831 12.3842 54.2743 13.6716 54.2743C15.8787 54.2743 17.4727 52.4938 17.3501 50.5905C17.2888 48.9942 16.6144 48.4416 15.6335 47.4593Z" fill="#190602"/>
<path d="M103.18 79.3239H43.8343C39.8493 79.3853 36.6613 82.5779 36.6613 86.5687V95.1027C36.784 99.0321 40.1559 102.409 44.0796 102.409H48.4937V95.1027H44.0796V86.7529C44.0796 86.7529 45.1831 86.7529 46.4706 86.7529C53.9501 86.7529 59.4678 93.752 59.4678 101.181C59.4678 107.75 53.4597 116.223 43.4052 115.548C34.4543 114.934 29.6722 107.014 29.6722 101.181V28.7334C29.6722 25.4794 27.036 22.778 23.7254 22.778H17.8398V30.1455H22.254V101.12C22.0088 115.548 32.4924 122.854 43.4665 122.854L103.242 123.038C115.319 123.038 125.067 113.215 125.067 101.181C125.067 89.1473 115.258 79.3239 103.18 79.3239ZM117.588 101.672C117.342 109.408 110.966 115.609 103.18 115.609L61.6136 115.425C64.9242 111.557 66.9474 106.584 66.9474 101.181C66.9474 92.6469 61.8588 86.7529 61.8588 86.7529H103.242C111.212 86.7529 117.649 93.1995 117.649 101.181L117.588 101.672Z" fill="#190602"/>
<path d="M87.243 31.5576H42.4883V24.1901H87.243C89.2661 24.1901 90.9214 25.8478 90.9214 27.8739C90.9214 29.8999 89.2661 31.5576 87.243 31.5576Z" fill="#190602"/>
<path d="M87.243 66.4307H42.4883V59.0632H87.243C89.2661 59.0632 90.9214 60.7209 90.9214 62.7469C90.9214 64.773 89.2661 66.4307 87.243 66.4307Z" fill="#190602"/>
<path d="M95.0904 48.9942H42.4883V41.6267H95.0904C97.1135 41.6267 98.7688 43.2844 98.7688 45.3105C98.7688 47.3365 97.1748 48.9942 95.0904 48.9942Z" fill="#190602"/>
</svg>
